# xmcd
#
# Track frame offsets:
#	150
#	14363
#	30427
#	46723
#	68050
#	84506
#	99582
#	115057
#	132325
#	148787
#	162912
#	180352
#	195973
#	211362
#
# Disc length: 3021 seconds
#
# Revision: 3
# Processed by: cddbd v1.5.2PL0 Copyright (c) Steve Scherf et al.
# Submitted via: EasyCDDAExtractor 15.3.0.1
#
DISCID=af0bcb0e
DTITLE=Pandora - Por Eso... Gracias
DYEAR=2004
DGENRE=Latin
TTITLE0=Me Cuesta Tanto Olvidarte
TTITLE1=Sin El
TTITLE2=La Maldita Primavera
TTITLE3=El Amor De Mi Vida
TTITLE4=Jamas
TTITLE5=Eres Tu
TTITLE6=Hazme Olvidarlo
TTITLE7=Que Ganas De No Verte Nunca Mas
TTITLE8=El Me Mintio
TTITLE9=Algo De Mi
TTITLE10=Como Te Va Mi Amor
TTITLE11=Mi Corazon Reclama
TTITLE12=Se
TTITLE13=Por Eso
EXTD=
EXTT0=
EXTT1=
EXTT2=
EXTT3=
EXTT4=
EXTT5=
EXTT6=
EXTT7=
EXTT8=
EXTT9=
EXTT10=
EXTT11=
EXTT12=
EXTT13=
PLAYORDER=
